<svg id="visual" viewBox="0 0 900 600" width="900" height="600" xmlns="http://www.w3.org/2000/svg" xmlns:xlink="http://www.w3.org/1999/xlink" version="1.1"><rect width="900" height="600" fill="#001829"></rect><g><g transform="translate(549 355)"><path d="M0 -129.5L101.2 -80.7L126.3 28.8L56.2 116.7L-56.2 116.7L-126.3 28.8L-101.2 -80.7Z" fill="none" stroke="#297EA6" stroke-width="3"></path></g><g transform="translate(266 222)"><path d="M0 -101L79 -63L98.5 22.5L43.8 91L-43.8 91L-98.5 22.5L-79 -63Z" fill="none" stroke="#297EA6" stroke-width="3"></path></g><g transform="translate(157 596)"><path d="M0 -104L81.3 -64.8L101.4 23.1L45.1 93.7L-45.1 93.7L-101.4 23.1L-81.3 -64.8Z" stroke="#297EA6" fill="none" stroke-width="3"></path></g><g transform="translate(46 26)"><path d="M0 -119L93 -74.2L116 26.5L51.6 107.2L-51.6 107.2L-116 26.5L-93 -74.2Z" stroke="#297EA6" fill="none" stroke-width="3"></path></g><g transform="translate(842 508)"><path d="M0 -104L81.3 -64.8L101.4 23.1L45.1 93.7L-45.1 93.7L-101.4 23.1L-81.3 -64.8Z" stroke="#297EA6" fill="none" stroke-width="3"></path></g><g transform="translate(537 55)"><path d="M0 -99L77.4 -61.7L96.5 22L43 89.2L-43 89.2L-96.5 22L-77.4 -61.7Z" stroke="#297EA6" fill="none" stroke-width="3"></path></g><g transform="translate(894 33)"><path d="M0 -123L96.2 -76.7L119.9 27.4L53.4 110.8L-53.4 110.8L-119.9 27.4L-96.2 -76.7Z" stroke="#297EA6" fill="none" stroke-width="3"></path></g><g transform="translate(416 592)"><path d="M0 -125L97.7 -77.9L121.9 27.8L54.2 112.6L-54.2 112.6L-121.9 27.8L-97.7 -77.9Z" stroke="#297EA6" fill="none" stroke-width="3"></path></g></g></svg>